<svg xmlns="http://www.w3.org/2000/svg" viewBox="0 0 120 140" width="120" height="140" fill="none">
  <defs>
    <filter id="softShadow" x="-10%" y="-10%" width="120%" height="120%" filterUnits="userSpaceOnUse">
      <feDropShadow dx="0" dy="4" stdDeviation="3" flood-opacity="0.25"/>
    </filter>
    <radialGradient id="soilGlow" cx="50%" cy="50%" r="50%">
      <stop offset="0%" stop-color="#45270e" stop-opacity="0.6"/>
      <stop offset="100%" stop-color="#2c1808" stop-opacity="0"/>
    </radialGradient>
  </defs>
  <!-- Soil Mound Base -->
  <ellipse cx="60" cy="132" rx="22" ry="6" fill="url(#soilGlow)" />
  
    <!-- Bushy Large Leaves -->
    <path d="M60 130 Q30 120 22 100 Q40 94 60 115" fill="#15803d" stroke="#166534" stroke-width="1.5"/>
    <path d="M60 130 Q90 120 98 100 Q80 94 60 115" fill="#16a34a" stroke="#166534" stroke-width="1.5"/>
    <!-- Stem -->
    <path d="M60 130 L60 82" stroke="#15803d" stroke-width="5" stroke-linecap="round"/>
    <!-- Pom-pom cluster of florets -->
    <g filter="url(#softShadow)">
      <!-- Background mass -->
      <circle cx="60" cy="58" r="32" fill="#be185d"/>
      
    <g transform="translate(44, 44)">
      <ellipse cx="0" cy="-6" rx="4" ry="5" fill="#fbcfe8"/>
      <ellipse cx="-6" cy="0" rx="5" ry="4" fill="#ec4899"/>
      <ellipse cx="6" cy="0" rx="5" ry="4" fill="#ec4899"/>
      <ellipse cx="0" cy="6" rx="4" ry="5" fill="#be185d"/>
      <circle cx="0" cy="0" r="1.5" fill="#fef08a"/>
    </g>
  

    <g transform="translate(60, 38)">
      <ellipse cx="0" cy="-6" rx="4" ry="5" fill="#fbcfe8"/>
      <ellipse cx="-6" cy="0" rx="5" ry="4" fill="#ec4899"/>
      <ellipse cx="6" cy="0" rx="5" ry="4" fill="#ec4899"/>
      <ellipse cx="0" cy="6" rx="4" ry="5" fill="#be185d"/>
      <circle cx="0" cy="0" r="1.5" fill="#fef08a"/>
    </g>
  

    <g transform="translate(76, 44)">
      <ellipse cx="0" cy="-6" rx="4" ry="5" fill="#fbcfe8"/>
      <ellipse cx="-6" cy="0" rx="5" ry="4" fill="#ec4899"/>
      <ellipse cx="6" cy="0" rx="5" ry="4" fill="#ec4899"/>
      <ellipse cx="0" cy="6" rx="4" ry="5" fill="#be185d"/>
      <circle cx="0" cy="0" r="1.5" fill="#fef08a"/>
    </g>
  

    <g transform="translate(34, 56)">
      <ellipse cx="0" cy="-6" rx="4" ry="5" fill="#fbcfe8"/>
      <ellipse cx="-6" cy="0" rx="5" ry="4" fill="#ec4899"/>
      <ellipse cx="6" cy="0" rx="5" ry="4" fill="#ec4899"/>
      <ellipse cx="0" cy="6" rx="4" ry="5" fill="#be185d"/>
      <circle cx="0" cy="0" r="1.5" fill="#fef08a"/>
    </g>
  

    <g transform="translate(50, 52)">
      <ellipse cx="0" cy="-6" rx="4" ry="5" fill="#fbcfe8"/>
      <ellipse cx="-6" cy="0" rx="5" ry="4" fill="#ec4899"/>
      <ellipse cx="6" cy="0" rx="5" ry="4" fill="#ec4899"/>
      <ellipse cx="0" cy="6" rx="4" ry="5" fill="#be185d"/>
      <circle cx="0" cy="0" r="1.5" fill="#fef08a"/>
    </g>
  

    <g transform="translate(66, 52)">
      <ellipse cx="0" cy="-6" rx="4" ry="5" fill="#fbcfe8"/>
      <ellipse cx="-6" cy="0" rx="5" ry="4" fill="#ec4899"/>
      <ellipse cx="6" cy="0" rx="5" ry="4" fill="#ec4899"/>
      <ellipse cx="0" cy="6" rx="4" ry="5" fill="#be185d"/>
      <circle cx="0" cy="0" r="1.5" fill="#fef08a"/>
    </g>
  

    <g transform="translate(86, 56)">
      <ellipse cx="0" cy="-6" rx="4" ry="5" fill="#fbcfe8"/>
      <ellipse cx="-6" cy="0" rx="5" ry="4" fill="#ec4899"/>
      <ellipse cx="6" cy="0" rx="5" ry="4" fill="#ec4899"/>
      <ellipse cx="0" cy="6" rx="4" ry="5" fill="#be185d"/>
      <circle cx="0" cy="0" r="1.5" fill="#fef08a"/>
    </g>
  

    <g transform="translate(40, 68)">
      <ellipse cx="0" cy="-6" rx="4" ry="5" fill="#fbcfe8"/>
      <ellipse cx="-6" cy="0" rx="5" ry="4" fill="#ec4899"/>
      <ellipse cx="6" cy="0" rx="5" ry="4" fill="#ec4899"/>
      <ellipse cx="0" cy="6" rx="4" ry="5" fill="#be185d"/>
      <circle cx="0" cy="0" r="1.5" fill="#fef08a"/>
    </g>
  

    <g transform="translate(56, 66)">
      <ellipse cx="0" cy="-6" rx="4" ry="5" fill="#fbcfe8"/>
      <ellipse cx="-6" cy="0" rx="5" ry="4" fill="#ec4899"/>
      <ellipse cx="6" cy="0" rx="5" ry="4" fill="#ec4899"/>
      <ellipse cx="0" cy="6" rx="4" ry="5" fill="#be185d"/>
      <circle cx="0" cy="0" r="1.5" fill="#fef08a"/>
    </g>
  

    <g transform="translate(74, 68)">
      <ellipse cx="0" cy="-6" rx="4" ry="5" fill="#fbcfe8"/>
      <ellipse cx="-6" cy="0" rx="5" ry="4" fill="#ec4899"/>
      <ellipse cx="6" cy="0" rx="5" ry="4" fill="#ec4899"/>
      <ellipse cx="0" cy="6" rx="4" ry="5" fill="#be185d"/>
      <circle cx="0" cy="0" r="1.5" fill="#fef08a"/>
    </g>
  

    <g transform="translate(60, 80)">
      <ellipse cx="0" cy="-6" rx="4" ry="5" fill="#fbcfe8"/>
      <ellipse cx="-6" cy="0" rx="5" ry="4" fill="#ec4899"/>
      <ellipse cx="6" cy="0" rx="5" ry="4" fill="#ec4899"/>
      <ellipse cx="0" cy="6" rx="4" ry="5" fill="#be185d"/>
      <circle cx="0" cy="0" r="1.5" fill="#fef08a"/>
    </g>
  
    </g>
  
</svg>