<svg xmlns="http://www.w3.org/2000/svg" viewBox="0 0 120 140" width="120" height="140" fill="none">
  <defs>
    <filter id="softShadow" x="-10%" y="-10%" width="120%" height="120%" filterUnits="userSpaceOnUse">
      <feDropShadow dx="0" dy="4" stdDeviation="3" flood-opacity="0.25"/>
    </filter>
    <radialGradient id="soilGlow" cx="50%" cy="50%" r="50%">
      <stop offset="0%" stop-color="#45270e" stop-opacity="0.6"/>
      <stop offset="100%" stop-color="#2c1808" stop-opacity="0"/>
    </radialGradient>
  </defs>
  <!-- Soil Mound Base -->
  <ellipse cx="60" cy="132" rx="22" ry="6" fill="url(#soilGlow)" />
  
    <!-- Sword-like Upright Foliage -->
    <path d="M58 130 Q46 90 42 45 Q52 85 58 115" fill="#15803d" stroke="#166534" stroke-width="1.5"/>
    <path d="M62 130 Q74 90 78 45 Q68 85 62 115" fill="#16a34a" stroke="#166534" stroke-width="1.5"/>
    <!-- Stem -->
    <path d="M60 130 L60 65" stroke="#15803d" stroke-width="4.5" stroke-linecap="round"/>
    <!-- Iris Blossom (Standards + Falls) -->
    <g filter="url(#softShadow)">
      <!-- 3 Upright Standards -->
      <ellipse cx="60" cy="40" rx="7" ry="18" fill="#a855f7"/>
      <ellipse cx="52" cy="44" rx="6" ry="16" fill="#c084fc" transform="rotate(-20 52 44)"/>
      <ellipse cx="68" cy="44" rx="6" ry="16" fill="#c084fc" transform="rotate(20 68 44)"/>
      <!-- 3 Drooping Falls -->
      <path d="M60 55 C46 58 40 76 48 84 C56 76 58 65 60 55 Z" fill="#6b21a8"/>
      <path d="M60 55 C74 58 80 76 72 84 C64 76 62 65 60 55 Z" fill="#6b21a8"/>
      <path d="M60 55 C54 62 54 82 60 88 C66 82 66 62 60 55 Z" fill="#581c87"/>
      <!-- Yellow Beard Crest -->
      <path d="M60 58 L60 72" stroke="#facc15" stroke-width="2.5" stroke-linecap="round"/>
      <circle cx="60" cy="62" r="3" fill="#fef08a"/>
    </g>
  
</svg>